<svg xmlns="http://www.w3.org/2000/svg" viewBox="0 0 32 32">
  <!-- Vue Dark Blue Background -->
  <rect width="32" height="32" rx="6" fill="#35495e"/>
  <!-- "Wx" Text styled in Vue Green -->
  <path d="M4 9l3 8 3-8h2l3 8 3-8h3l-4.5 12h-3L10.5 12 7.5 21h-3L1 9h3z" fill="#42b883"/>
  <path d="M20 13l2.5 3.5 2.5-3.5h2.5l-4 5.5 4 5.5h-2.5l-2.5-3.5-2.5 3.5H16l4-5.5-4-5.5h2.5z" fill="#42b883"/>
  <!-- Minimalist Weather/Cloud icon -->
  <path d="M28 10a3 3 0 0 0-3-3 3.5 3.5 0 0 0-5.7 1.3A4 4 0 1 0 19 13h7a2 2 0 0 0 2-3z" fill="#ffffff" opacity="0.9"/>
</svg>